<?xml version="1.0" encoding="UTF-8"?>
<svg width="18px" height="22px" viewBox="0 0 18 22" version="1.1" xmlns="http://www.w3.org/2000/svg" xmlns:xlink="http://www.w3.org/1999/xlink">
    <title>98B9CA9C-599E-4245-834B-108C3E8F8870</title>
    <g id="Ecommerce" stroke="none" stroke-width="1" fill="none" fill-rule="evenodd" stroke-linecap="round" stroke-linejoin="round">
        <g id="boc_mobile_homepage_v01" transform="translate(-59.000000, -51.000000)" stroke="#FFFFFF" stroke-width="2">
            <g id="Middle" transform="translate(18.000000, 42.000000)">
                <g id="location-icon" transform="translate(42.000000, 10.000000)">
                    <path d="M15.967,8.915 C16,8.644 16,8.407 16,8.136 C16,3.643 12.418,0 8,0 C3.582,0 0,3.643 0,8.136 C0,8.407 0,8.678 0.033,8.915 L0.033,9.017 C0.7,15.458 8,20 8,20 C8,20 15.3,15.39 15.934,9.051 L15.967,8.915 Z" id="Stroke-1"></path>
                    <path d="M8,5 C9.65675,5 11,6.34308543 11,8.00036878 C11,9.65691457 9.65675,11 8,11 C6.34325,11 5,9.65691457 5,8.00036878 C5,6.34308543 6.34325,5 8,5 Z" id="Stroke-3"></path>
                </g>
            </g>
        </g>
    </g>
</svg>