<?xml version="1.0" encoding="UTF-8"?>
<svg width="22px" height="22px" viewBox="0 0 22 22" version="1.1" xmlns="http://www.w3.org/2000/svg" xmlns:xlink="http://www.w3.org/1999/xlink">
    <title>C5B991A6-88FB-4EFA-BBEF-2C0C87A6CE8A</title>
    <g id="Ecommerce" stroke="none" stroke-width="1" fill="none" fill-rule="evenodd" stroke-linecap="round" stroke-linejoin="round">
        <g id="boc_mobile_homepage_v01" transform="translate(-291.000000, -51.000000)" stroke="#FFFFFF" stroke-width="2">
            <g id="Middle" transform="translate(18.000000, 42.000000)">
                <path d="M292.989,24.9955351 L289.518,22.7265351 C288.796,22.2695351 287.84,22.4605351 287.349,23.1605351 C286.548,24.1285351 285.58,25.7295351 281.943,22.0935351 C278.305,18.4565351 279.873,17.4565351 280.842,16.6555351 C281.542,16.1645351 281.733,15.2095351 281.275,14.4875351 L279.006,11.0175351 C278.705,10.5835351 278.305,9.8835351 277.371,10.0165351 C276.436,10.1505351 274,11.5175351 274,14.5205351 C274,17.5225351 276.369,21.1925351 279.607,24.4295351 C282.843,27.6645351 286.514,30.0005351 289.485,30.0005351 C292.455,30.0005351 293.889,27.3315351 293.99,26.6635351 C294.09,25.9965351 293.423,25.2965351 292.989,24.9955351 Z" id="phone-icon"></path>
            </g>
        </g>
    </g>
</svg>